<?xml version="1.0" standalone="no"?>
<!DOCTYPE svg PUBLIC "-//W3C//DTD SVG 20010904//EN"
 "http://www.w3.org/TR/2001/REC-SVG-20010904/DTD/svg10.dtd">
<svg version="1.0" xmlns="http://www.w3.org/2000/svg"
 width="557.000000pt" height="557.000000pt" viewBox="0 0 557.000000 557.000000"
 preserveAspectRatio="xMidYMid meet">
<metadata>
Created by potrace 1.11, written by Peter Selinger 2001-2013
</metadata>
<g transform="translate(0.000000,557.000000) scale(0.100000,-0.100000)"
fill="#000000" stroke="none">
<path d="M1951 4374 c-163 -36 -343 -138 -490 -279 -182 -175 -304 -369 -390
-621 -71 -209 -101 -388 -121 -709 -23 -363 -48 -494 -122 -638 -55 -106 -82
-132 -142 -141 -72 -11 -219 -61 -290 -99 -88 -47 -173 -130 -208 -202 -37
-79 -40 -175 -5 -226 50 -74 120 -97 228 -74 119 25 217 84 352 214 l87 84 83
-28 c45 -15 159 -60 252 -100 315 -135 409 -163 586 -172 336 -17 651 118 986
423 l83 76 0 120 0 121 -87 -84 c-206 -198 -422 -284 -648 -259 -118 14 -199
36 -410 112 -267 97 -355 119 -491 121 l-111 2 34 40 c147 173 247 326 302
463 70 177 126 415 161 687 73 569 93 671 156 803 48 101 128 182 203 207 32
10 83 17 128 17 63 0 84 -4 131 -29 70 -35 122 -101 148 -186 25 -81 25 -273
1 -367 -26 -101 -91 -223 -150 -283 -88 -90 -203 -112 -285 -53 l-37 26 -9
-23 c-5 -12 -10 -65 -10 -117 -1 -79 3 -102 21 -135 56 -105 166 -152 315
-134 195 24 375 175 487 410 66 136 84 219 85 394 1 143 0 154 -30 235 -73
207 -227 346 -441 400 -91 24 -254 25 -352 4z"/>
<path d="M4340 4383 c-217 -35 -427 -129 -634 -284 -352 -264 -628 -684 -736
-1119 -48 -195 -55 -252 -55 -475 0 -183 3 -221 22 -297 52 -206 135 -359 271
-500 161 -167 341 -265 577 -314 135 -28 429 -26 582 4 292 58 532 179 776
390 l97 84 0 123 0 122 -97 -99 c-173 -176 -339 -284 -508 -330 -106 -28 -348
-32 -440 -6 -260 72 -449 232 -565 480 -118 252 -132 587 -41 944 77 302 233
623 401 829 205 251 409 348 578 275 141 -61 207 -250 168 -479 -29 -164 -93
-295 -203 -412 -81 -86 -146 -119 -233 -119 -73 0 -106 15 -155 72 l-36 43
-20 -25 c-68 -84 -83 -206 -36 -301 68 -139 269 -210 471 -165 301 67 559 368
621 723 19 108 19 268 0 357 -51 239 -246 423 -503 472 -67 13 -241 17 -302 7z"/>
</g>
</svg>
