<?xml version="1.0" standalone="no"?>
<!DOCTYPE svg PUBLIC "-//W3C//DTD SVG 20010904//EN"
 "http://www.w3.org/TR/2001/REC-SVG-20010904/DTD/svg10.dtd">
<svg version="1.0" xmlns="http://www.w3.org/2000/svg"
 width="512.000000pt" height="512.000000pt" viewBox="0 0 512.000000 512.000000"
 preserveAspectRatio="xMidYMid meet">
<metadata>
Created by potrace 1.11, written by Peter Selinger 2001-2013
</metadata>
<g transform="translate(0.000000,512.000000) scale(0.100000,-0.100000)"
fill="#000000" stroke="none">
<path d="M2207 5030 c-15 -5 -47 -11 -70 -14 -73 -11 -77 -12 -89 -24 -7 -7
-19 -12 -27 -12 -23 0 -151 -43 -151 -51 0 -10 -75 -34 -185 -60 -87 -20 -163
-52 -244 -103 -22 -14 -75 -43 -119 -64 -43 -21 -91 -48 -107 -60 -15 -12 -33
-22 -39 -22 -6 1 0 7 14 15 19 11 21 14 8 15 -24 0 -59 -36 -52 -53 3 -9 -16
-26 -53 -48 -52 -31 -88 -63 -217 -196 -22 -24 -47 -43 -54 -43 -7 0 -19 -15
-27 -32 -14 -35 -55 -69 -55 -46 0 6 -20 -17 -45 -53 -24 -35 -50 -71 -57 -79
-8 -8 -25 -32 -38 -52 -14 -21 -28 -38 -32 -38 -12 0 -94 -113 -155 -215 -67
-111 -153 -271 -153 -283 1 -11 -33 -86 -42 -93 -6 -4 -64 -151 -69 -174 -6
-31 -13 -44 -20 -39 -15 9 -10 -81 5 -102 10 -13 11 -23 4 -31 -5 -7 -11 -33
-11 -58 -1 -25 -7 -49 -13 -53 -21 -13 -30 -139 -26 -383 4 -305 5 -338 14
-333 14 9 19 -18 20 -91 0 -42 4 -78 9 -81 7 -4 5 -95 -5 -164 -4 -32 3 -50
19 -50 16 0 27 -27 14 -36 -17 -10 -3 -54 45 -151 25 -50 46 -95 46 -100 0 -4
8 -13 18 -19 10 -7 24 -31 31 -55 28 -95 93 -206 175 -297 11 -12 21 -29 22
-38 4 -23 46 -82 108 -149 31 -33 56 -65 56 -72 0 -18 138 -169 179 -197 20
-13 62 -49 93 -79 31 -31 78 -67 105 -81 26 -13 66 -41 88 -62 66 -62 200
-144 385 -237 166 -83 179 -88 253 -93 53 -3 77 -1 72 6 -10 16 59 12 81 -5
19 -15 19 -15 -1 -9 -15 5 -17 4 -9 -5 21 -23 228 -73 394 -96 30 -4 155 -9
278 -10 182 -3 223 -1 218 10 -6 16 56 28 66 12 4 -7 21 -5 50 6 53 21 72 21
38 2 -39 -23 -5 -17 40 6 22 12 63 23 91 25 71 4 162 26 148 34 -15 10 -9 13
107 49 197 60 441 186 495 255 11 14 26 23 34 20 31 -12 253 138 254 171 0 6
8 12 19 15 49 13 356 327 346 354 -2 6 15 28 39 47 26 22 43 46 44 60 1 13 8
28 15 34 7 5 14 16 16 24 1 7 20 39 41 70 106 156 191 360 296 711 38 127 51
195 34 184 -13 -7 -11 13 5 67 8 25 14 89 14 145 0 54 -2 92 -4 84 -3 -9 -12
-20 -22 -26 -16 -10 -17 0 -17 135 -1 131 -9 268 -21 325 -2 12 -9 49 -14 84
-38 233 -145 525 -277 759 -23 40 -35 69 -27 66 10 -4 7 10 -10 46 -29 63 -35
70 -28 34 2 -15 11 -36 20 -45 8 -10 11 -18 5 -18 -6 0 -30 30 -54 67 -65 102
-185 247 -300 364 -92 94 -103 108 -103 141 -1 21 1 38 4 38 3 0 37 -31 75
-70 52 -52 63 -68 44 -63 -22 6 -23 5 -10 -11 17 -21 71 -50 71 -39 1 5 28
-21 62 -57 33 -36 51 -51 40 -35 -11 17 -39 48 -62 70 -23 22 -48 53 -56 68
-8 15 -19 25 -24 22 -5 -3 -35 24 -67 60 -38 43 -68 67 -88 71 -16 3 -37 11
-45 18 -8 6 -1 -6 14 -26 35 -47 28 -49 -16 -6 -18 18 -37 33 -43 35 -53 12
-136 59 -163 92 -7 9 -16 16 -21 16 -18 0 -180 98 -185 112 -4 9 -13 13 -22 9
-10 -4 -13 -2 -8 6 5 7 2 9 -7 6 -8 -3 -33 5 -55 18 l-39 24 35 -6 c73 -12
151 -47 173 -77 20 -26 64 -57 83 -57 3 0 0 7 -7 16 -12 14 -9 14 26 -1 22 -9
60 -28 85 -42 44 -25 44 -25 25 -3 -11 12 -33 29 -50 37 -60 28 -105 60 -98
68 5 4 3 5 -3 2 -6 -4 -32 9 -57 28 -25 19 -53 35 -61 35 -8 0 -18 5 -21 10
-3 6 -11 10 -16 10 -6 0 -7 -5 -3 -12 5 -8 2 -9 -12 -4 -10 4 -23 9 -29 10 -5
2 -23 8 -38 14 -16 7 -33 12 -38 12 -5 0 -9 5 -9 10 0 6 -8 10 -17 10 -21 1
-53 23 -53 37 0 5 -17 17 -37 26 -78 34 -118 49 -138 53 -11 2 -31 6 -45 9
-14 3 -47 10 -75 15 -27 6 -72 15 -100 20 -27 6 -72 13 -100 16 -27 3 -62 10
-77 16 -15 6 -34 8 -43 5 -8 -4 -17 -3 -19 2 -3 4 -20 6 -38 4 -24 -3 -29 -2
-19 5 10 7 -15 10 -80 10 -52 0 -173 2 -269 5 -96 3 -188 1 -203 -3z m839
-100 c28 -13 73 -22 118 -25 103 -6 186 -30 186 -55 0 -19 -38 -19 -79 1 -24
11 -49 18 -57 15 -8 -3 -13 -2 -10 3 3 4 -7 8 -22 8 -44 0 -192 35 -186 44 3
5 -24 9 -60 9 -37 0 -66 4 -66 10 0 19 128 11 176 -10z m-1029 -17 c4 -11 -72
-34 -82 -25 -11 11 -4 23 16 31 28 10 62 7 66 -6z m77 5 c-7 -11 -64 -10 -64
0 0 5 15 8 34 8 19 0 32 -4 30 -8z m-535 -145 c-13 -16 -24 -29 -24 -30 -1 -1
-28 -14 -60 -28 l-60 -25 45 40 c25 22 52 40 60 40 8 0 24 7 34 15 30 23 32
18 5 -12z m-775 -552 c3 -5 -1 -14 -8 -20 -12 -10 -13 -8 -9 8 6 23 9 25 17
12z m-619 -1188 c-7 -49 -15 -55 -15 -11 0 31 6 48 17 48 2 0 2 -17 -2 -37z"/>
<path d="M3503 4830 c22 -14 64 -23 51 -11 -5 5 -22 11 -39 15 -24 5 -27 4
-12 -4z"/>
<path d="M3713 4683 c4 -6 2 -13 -5 -15 -8 -3 -6 -6 4 -10 17 -7 19 15 3 29
-4 4 -5 3 -2 -4z"/>
<path d="M3860 4596 c0 -2 15 -13 34 -24 22 -13 33 -16 30 -8 -6 16 -64 45
-64 32z"/>
<path d="M4100 4470 c8 -5 20 -10 25 -10 6 0 3 5 -5 10 -8 5 -19 10 -25 10 -5
0 -3 -5 5 -10z"/>
<path d="M4419 4192 c19 -23 36 -40 39 -37 9 9 -8 33 -40 56 l-33 24 34 -43z"/>
<path d="M4388 4125 c13 -25 52 -62 52 -48 0 5 -14 22 -31 39 -23 21 -29 23
-21 9z"/>
<path d="M4450 4116 c0 -2 8 -10 18 -17 15 -13 16 -12 3 4 -13 16 -21 21 -21
13z"/>
<path d="M4540 4002 c0 -5 7 -15 15 -22 8 -7 15 -9 15 -6 0 4 -7 14 -15 22 -8
9 -15 11 -15 6z"/>
<path d="M4590 3900 c6 -11 16 -20 22 -20 6 0 3 9 -7 20 -10 11 -20 20 -22 20
-2 0 1 -9 7 -20z"/>
<path d="M4649 3846 c29 -31 35 -33 22 -7 -6 10 -18 22 -28 25 -13 5 -11 1 6
-18z"/>
<path d="M4640 3786 c0 -7 9 -16 21 -19 20 -5 20 -5 3 14 -20 23 -24 23 -24 5z"/>
<path d="M4790 3613 c0 -7 -9 -10 -20 -8 -11 2 -18 0 -15 -5 3 -5 14 -7 24 -5
12 2 18 -2 17 -12 0 -9 5 -18 12 -20 8 -3 11 3 9 16 -4 24 -27 53 -27 34z"/>
<path d="M4814 3506 c2 -15 9 -33 15 -39 10 -9 11 -5 5 18 -9 40 -23 55 -20
21z"/>
<path d="M4850 3465 c0 -5 5 -17 10 -25 5 -8 10 -10 10 -5 0 6 -5 17 -10 25
-5 8 -10 11 -10 5z"/>
<path d="M4863 3262 c-7 -4 -9 -13 -4 -21 6 -9 10 -7 14 8 3 12 4 21 4 21 -1
0 -7 -4 -14 -8z"/>
<path d="M4881 3244 c-1 -6 8 -37 19 -69 11 -32 20 -68 20 -80 0 -13 6 -25 13
-28 10 -4 5 21 -15 81 -33 103 -36 110 -37 96z"/>
<path d="M5015 2550 c3 -5 8 -10 11 -10 2 0 4 5 4 10 0 6 -5 10 -11 10 -5 0
-7 -4 -4 -10z"/>
<path d="M4996 2515 c-3 -8 -1 -15 4 -15 6 0 10 7 10 15 0 8 -2 15 -4 15 -2 0
-6 -7 -10 -15z"/>
<path d="M5011 2414 c0 -11 3 -14 6 -6 3 7 2 16 -1 19 -3 4 -6 -2 -5 -13z"/>
</g>
</svg>
